<svg width="262" height="60" viewBox="0 0 262 60" fill="none" xmlns="http://www.w3.org/2000/svg">
<path d="M28.8541 58.7102C29.4368 59.4263 30.3203 59.3758 30.8172 58.5974L40.0614 44.1252C40.5585 43.3466 40.2745 42.4041 39.4303 42.0301L35.1427 40.1289C34.2987 39.7546 33.1599 40.0568 32.6123 40.8003L24.898 51.2724C24.3504 52.0163 24.3791 53.2103 24.9618 53.9263L28.8541 58.7102Z" fill="white"/>
<path d="M20.3668 48.6346C20.9835 49.3217 21.96 49.293 22.5365 48.572L29.7439 39.5534C30.3203 38.8321 30.1021 37.9336 29.2587 37.5574L24.8787 35.5649C24.0373 35.1842 22.8156 35.4075 22.1638 36.0613L16.4629 41.7799C15.8111 42.4337 15.7827 43.5309 16.3996 44.218L20.3668 48.6346Z" fill="white"/>
<path d="M11.7848 39.26C12.4335 39.917 13.5268 39.9499 14.2137 39.3327L19.3593 34.7116C20.0464 34.0948 19.9252 33.2672 19.0904 32.8729L15.0674 30.7997C14.2428 30.3846 12.9443 30.471 12.1819 30.992L8.31778 33.4128C7.54064 33.9112 7.43571 34.8566 8.08463 35.5137L11.7848 39.26Z" fill="white"/>
<path d="M3.44419 31.1342C4.13049 31.752 5.35898 31.9023 6.17381 31.4683L9.65363 29.5635C10.4652 29.1228 10.4693 28.3944 9.66282 27.9445L6.53136 25.9845C5.74096 25.5071 4.39658 25.4057 3.54355 25.7596L0.759188 26.7185C-0.10712 27.0386 -0.254019 27.8057 0.432275 28.4236L3.44419 31.1342Z" fill="white"/>
<path d="M45.7749 35.087C45.275 35.8633 44.1275 36.3404 43.2247 36.1469L38.7098 35.1457C37.8079 34.9476 37.5205 34.1792 38.0712 33.4377L44.9183 24.2188C45.4689 23.4776 46.6546 22.6968 47.5532 22.4838L53.4527 21.0232C54.3492 20.8034 54.6745 21.2588 54.1746 22.0353L45.7749 35.087Z" fill="white"/>
<path d="M35.1268 32.7786C34.553 33.5021 33.3504 33.9115 32.4544 33.6885L27.771 32.4565C26.877 32.2244 26.6801 31.5006 27.3331 30.8478L32.0306 26.1631C32.6843 25.511 33.9696 24.8902 34.8866 24.7836L40.738 23.8575C41.6512 23.7212 41.9291 24.2019 41.3553 24.9252L35.1268 32.7786Z" fill="white"/>
<path d="M17.4052 27.6705C16.6279 28.1689 16.6964 28.8495 17.5576 29.1828L21.6882 30.6067C22.5579 30.9166 23.8348 30.6694 24.5261 30.057L28.671 26.3053C29.3568 25.6872 29.1643 25.2266 28.2424 25.2815L23.4539 24.9319C22.5312 24.8964 21.1403 25.2751 20.363 25.7737L17.4052 27.6705Z" fill="white"/>
<path d="M57.2582 15.4552C58.1215 15.127 59.235 14.2221 59.7324 13.4443L67.8731 0.743458C68.3713 -0.0338469 68.1614 -0.234468 67.4072 0.298145L58.95 6.20558C58.1937 6.73484 57.126 7.77572 56.5774 8.51861L50.1932 17.1689C49.6446 17.912 49.9023 18.2513 50.7653 17.9231L57.2582 15.4552Z" fill="white"/>
<path d="M43.8425 20.2429C44.7328 19.9979 45.931 19.2057 46.5048 18.4825L52.1365 11.3362C52.7085 10.6113 52.5377 10.4216 51.7566 10.9144L43.3716 15.3801C42.5612 15.8229 41.3672 16.7223 40.7178 17.3788L36.9065 21.2767C36.2602 21.9361 36.4596 22.275 37.3498 22.0301L43.8425 20.2429Z" fill="white"/>
<path d="M73.2534 45.5414L66.8713 45.5934L59.9439 25.6011L65.205 25.5591L70.0716 40.6269L74.6666 25.4832L79.991 25.4414L73.2534 45.5414Z" fill="white"/>
<path d="M88.8515 36.5617C88.8503 36.4975 88.8503 36.3379 88.849 36.2724C88.8352 34.5088 88.0893 33.4242 86.5498 33.4361C84.8492 33.4497 83.8347 34.9342 83.687 36.6364L88.8515 36.5617ZM83.6765 39.1693C83.8524 41.1566 85.2399 42.3008 87.6461 42.2815C89.2813 42.268 91.0093 41.6775 92.5097 40.7998L93.0218 44.6117C91.5209 45.3932 89.3741 45.8608 87.2256 45.8772C82.158 45.917 78.8637 43.1213 78.8234 38.1492C78.7848 33.2737 82.095 30.0723 86.8424 30.0349C91.076 30.0005 93.4067 32.516 93.4365 36.2363C93.4423 37.0393 93.3227 38.2266 93.1364 38.8698L83.6752 39.1054L83.6765 39.1693Z" fill="white"/>
<path d="M103.526 45.7815C98.5867 45.8218 95.4225 43.0902 95.3822 38.0206C95.3419 33.0828 98.5238 29.9439 103.528 29.9051C105.614 29.8887 107.605 30.3527 108.959 31.112L108.026 34.84C106.834 34.1763 105.386 33.7062 104.072 33.7169C101.698 33.7361 100.396 35.4146 100.416 37.8209C100.437 40.4839 101.957 41.9458 104.266 41.9262C105.773 41.9144 107.053 41.4876 108.202 40.7733L108.97 44.5207C107.724 45.3013 105.676 45.7651 103.526 45.7815Z" fill="white"/>
<path d="M117.647 45.6722C113.958 45.7026 111.957 44.2121 112.119 40.2973L112.297 34.6178L110.049 34.2509L110.121 31.106L112.36 30.351L112.397 26.9512L117.176 26.9123L117.173 30.4735L120.892 30.4436L120.828 34.3254L116.85 34.3566L116.733 39.7153C116.68 41.0938 117.486 41.6655 118.705 41.655C119.315 41.6504 119.987 41.4864 120.658 41.2552L121.266 45.0994C120.115 45.4621 119.154 45.6606 117.647 45.6722Z" fill="white"/>
<path d="M130.578 33.4496C128.558 33.466 127.512 35.1088 127.533 37.6746C127.552 40.2076 128.656 41.8057 130.676 41.7893C132.697 41.7728 133.743 40.1584 133.723 37.5927C133.703 35.0924 132.599 33.4332 130.578 33.4496ZM130.611 45.5724C126.12 45.6085 122.666 42.8141 122.626 37.7476C122.584 32.6783 126.154 29.7304 130.676 29.6947C135.167 29.6586 138.59 32.5187 138.629 37.5226C138.67 42.5262 135.07 45.538 130.611 45.5724Z" fill="white"/>
<path d="M146.266 44.9713L141.327 45.01L141.211 30.351L146.144 29.7037L146.162 31.8848C147.016 30.3706 148.164 29.5591 149.735 29.5468C150.538 29.5411 151.405 29.7258 152.21 30.1362L151.251 34.506C150.671 34.2227 150.029 34.0672 149.388 34.0735C148.169 34.082 147.083 34.6998 146.196 36.2797L146.266 44.9713Z" fill="white"/>
<path d="M164.481 40.1625C164.462 37.6594 162.279 36.6937 159.47 35.792C156.902 34.9485 154.24 33.839 154.218 30.8301C154.196 28.0885 156.593 25.9853 159.84 25.9594C161.984 25.9417 163.807 26.5818 165.185 27.4661L164.716 28.5713C163.339 27.6287 161.546 27.0472 159.849 27.0603C156.929 27.0835 155.394 28.8535 155.409 30.7297C155.426 32.9938 157.519 33.8726 160.296 34.8034C162.955 35.6761 165.617 36.8175 165.643 40.0347C165.666 42.9244 163.21 45.1481 159.665 45.1775C157.401 45.1947 155.519 44.553 153.961 43.5545L154.43 42.4762C155.837 43.42 157.66 44.0908 159.716 44.0732C162.606 44.0501 164.499 42.2478 164.481 40.1625Z" fill="white"/>
<path d="M174.605 31.9208C171.505 31.9454 169.202 34.4674 169.229 37.9825C169.26 41.707 171.572 43.9817 174.701 43.9573C177.798 43.9323 180.103 41.4106 180.074 37.8951C180.044 34.1722 177.703 31.8957 174.605 31.9208ZM174.65 45.0591C170.956 45.0902 168.044 42.37 168.011 38.0509C167.976 33.7311 170.96 30.8474 174.656 30.8182C178.35 30.7879 181.261 33.5074 181.295 37.8266C181.329 42.1463 178.344 45.0302 174.65 45.0591Z" fill="white"/>
<path d="M184.55 44.6843L184.39 25.4279L185.608 25.0294L185.772 44.6743L184.55 44.6843Z" fill="white"/>
<path d="M190.996 30.9899L191.069 40.0461C191.088 42.4603 192.11 43.7911 194.315 43.7738C195.865 43.7622 197.526 42.8854 199.004 41.3843L198.92 30.9272L200.141 30.9169L200.25 44.4731L199.032 44.8702L199.011 42.4573C197.446 44.0778 195.486 44.8979 194.176 44.9081C191.495 44.9299 189.873 43.3345 189.849 40.3252L189.775 31.0002L190.996 30.9899Z" fill="white"/>
<path d="M207.985 44.9504C205.454 44.9711 204.517 43.3999 204.585 40.6293L204.756 32.1343L202.878 32.0326L202.961 31.256L204.776 31.003L204.84 27.7555L206.031 27.7452L205.969 31.0248L210.825 30.9855L210.743 32.0298L205.947 32.0675L205.776 40.6482C205.736 42.882 206.398 43.8607 208.006 43.8478C208.989 43.8406 209.94 43.4755 210.77 43.0218L211.018 44.0631C210.099 44.6071 208.969 44.9428 207.985 44.9504Z" fill="white"/>
<path d="M213.73 44.4588L213.623 30.9043L214.84 30.5054L214.952 44.4483L213.73 44.4588ZM214.191 27.5605C213.656 27.5648 213.323 27.0923 213.32 26.6152C213.316 26.1686 213.64 25.7194 214.177 25.7148C214.712 25.712 215.074 26.1557 215.077 26.6021C215.081 27.0792 214.728 27.5576 214.191 27.5605Z" fill="white"/>
<path d="M224.589 31.5309C221.491 31.5557 219.186 34.0759 219.215 37.5913C219.244 41.316 221.556 43.5917 224.684 43.5675C227.782 43.5422 230.086 41.0208 230.058 37.5053C230.029 33.7824 227.687 31.5064 224.589 31.5309ZM224.634 44.6695C220.939 44.6985 218.028 41.9806 217.995 37.661C217.96 33.3417 220.945 30.4576 224.639 30.4272C228.334 30.3981 231.245 33.1163 231.28 37.4356C231.315 41.7549 228.328 44.6402 224.634 44.6695Z" fill="white"/>
<path d="M243.516 44.2213L243.443 35.1654C243.424 32.7523 242.4 31.4191 240.195 31.4363C238.646 31.4494 236.986 32.3266 235.508 33.8275L235.591 44.2842L234.37 44.2944L234.262 30.7398L235.48 30.3411L235.499 32.725C237.065 31.1035 239.024 30.3136 240.335 30.3021C243.016 30.2816 244.638 31.8768 244.662 34.8861L244.737 44.2118L243.516 44.2213Z" fill="white"/>
<path d="M251.529 44.4559C249.979 44.4674 248.456 44.0036 247.379 43.3261L247.756 42.1913C248.924 42.9269 250.209 43.3929 251.578 43.3807C253.308 43.3681 255.028 42.43 255.014 40.702C254.999 38.7357 253.177 38.2747 251.354 37.6627C249.533 37.0516 247.501 36.204 247.482 33.9394C247.463 31.4973 249.39 30.2308 251.743 30.212C253.172 30.2002 254.547 30.6379 255.623 31.1645L255.216 32.2696C254.078 31.6531 252.912 31.2457 251.631 31.256C249.784 31.2708 248.571 32.2626 248.584 33.7824C248.597 35.5698 250.389 36.0933 252.182 36.6737C254.064 37.2861 256.096 38.0725 256.116 40.5741C256.135 42.9581 254.061 44.4354 251.529 44.4559Z" fill="white"/>
<path d="M261.69 32.8729L261.633 30.8719H261.589L260.85 32.8414H260.497L259.834 30.8719H259.791L259.721 32.8729H259.43L259.525 30.512H260.049L260.674 32.5H260.718L261.412 30.512H261.911L262 32.8729H261.69ZM258.174 30.8084V32.8729H257.872V30.8084H256.981V30.512H259.096V30.8084H258.174Z" fill="white"/>
</svg>
